<mxfile host="app.diagrams.net" modified="2024-07-04T04:15:23.696Z" agent="Mozilla/5.0 (Macintosh; Intel Mac OS X 10_15_7) AppleWebKit/537.36 (KHTML, like Gecko) Chrome/126.0.0.0 Safari/537.36" version="24.6.4" etag="5-YKvvA6yvO9UggSsCxE" type="github">
  <diagram name="Page-1" id="IZ1od5qubwqTzApJT-Oi">
    <mxGraphModel>
      <root>
        <mxCell id="0" />
        <mxCell id="1" parent="0" />
      </root>
    </mxGraphModel>
  </diagram>
</mxfile>
